  0
SECTION
  2
HEADER
  9
$ACADVER
  1
AC1015
  9
$ACADMAINTVER
 70
     6
  9
$DWGCODEPAGE
  3
ANSI_1252
  9
$INSBASE
 10
0.0
 20
0.0
 30
0.0
  9
$EXTMIN
 10
-95.1224250406
 20
-72.1224250406
 30
0.0
  9
$EXTMAX
 10
95.1224250406
 20
70.8224250406
 30
0.0
  9
$LIMMIN
 10
0.0
 20
0.0
  9
$LIMMAX
 10
420.0
 20
297.0
  9
$ORTHOMODE
 70
     0
  9
$REGENMODE
 70
     1
  9
$FILLMODE
 70
     1
  9
$QTEXTMODE
 70
     0
  9
$MIRRTEXT
 70
     1
  9
$LTSCALE
 40
1.0
  9
$ATTMODE
 70
     1
  9
$TEXTSIZE
 40
3.5
  9
$TRACEWID
 40
1.0
  9
$TEXTSTYLE
  7
Standard
  9
$CLAYER
  8
0
  9
$CELTYPE
  6
ByLayer
  9
$CECOLOR
 62
   256
  9
$CELTSCALE
 40
1.0
  9
$DISPSILH
 70
     0
  9
$DIMSCALE
 40
1.0
  9
$DIMASZ
 40
3.302
  9
$DIMEXO
 40
1.0
  9
$DIMDLI
 40
3.75
  9
$DIMRND
 40
0.0
  9
$DIMDLE
 40
0.0
  9
$DIMEXE
 40
1.0
  9
$DIMTP
 40
0.0
  9
$DIMTM
 40
0.0
  9
$DIMTXT
 40
3.5
  9
$DIMCEN
 40
2.5
  9
$DIMTSZ
 40
0.0
  9
$DIMTOL
 70
     0
  9
$DIMLIM
 70
     0
  9
$DIMTIH
 70
     1
  9
$DIMTOH
 70
     1
  9
$DIMSE1
 70
     0
  9
$DIMSE2
 70
     0
  9
$DIMTAD
 70
     1
  9
$DIMZIN
 70
     0
  9
$DIMBLK
  1

  9
$DIMASO
 70
     1
  9
$DIMSHO
 70
     1
  9
$DIMPOST
  1

  9
$DIMAPOST
  1

  9
$DIMALT
 70
     0
  9
$DIMALTD
 70
     3
  9
$DIMALTF
 40
0.0393700787
  9
$DIMLFAC
 40
1.0
  9
$DIMTOFL
 70
     1
  9
$DIMTVP
 40
0.0
  9
$DIMTIX
 70
     0
  9
$DIMSOXD
 70
     0
  9
$DIMSAH
 70
     0
  9
$DIMBLK1
  1

  9
$DIMBLK2
  1

  9
$DIMSTYLE
  2
ISO-25
  9
$DIMCLRD
 70
     0
  9
$DIMCLRE
 70
     0
  9
$DIMCLRT
 70
     0
  9
$DIMTFAC
 40
1.0
  9
$DIMGAP
 40
1.524
  9
$DIMJUST
 70
     0
  9
$DIMSD1
 70
     0
  9
$DIMSD2
 70
     0
  9
$DIMTOLJ
 70
     0
  9
$DIMTZIN
 70
     0
  9
$DIMALTZ
 70
     0
  9
$DIMALTTZ
 70
     0
  9
$DIMUPT
 70
     0
  9
$DIMDEC
 70
     2
  9
$DIMTDEC
 70
     2
  9
$DIMALTU
 70
     2
  9
$DIMALTTD
 70
     3
  9
$DIMTXSTY
  7
Standard
  9
$DIMAUNIT
 70
     0
  9
$DIMADEC
 70
     2
  9
$DIMALTRND
 40
0.0
  9
$DIMAZIN
 70
     0
  9
$DIMDSEP
 70
    44
  9
$DIMATFIT
 70
     3
  9
$DIMFRAC
 70
     0
  9
$DIMLDRBLK
  1

  9
$DIMLUNIT
 70
     2
  9
$DIMLWD
 70
    -2
  9
$DIMLWE
 70
    -2
  9
$DIMTMOVE
 70
     0
  9
$LUNITS
 70
     2
  9
$LUPREC
 70
     2
  9
$SKETCHINC
 40
1.0
  9
$FILLETRAD
 40
10.0
  9
$AUNITS
 70
     0
  9
$AUPREC
 70
     2
  9
$MENU
  1
.
  9
$ELEVATION
 40
0.0
  9
$PELEVATION
 40
0.0
  9
$THICKNESS
 40
0.0
  9
$LIMCHECK
 70
     0
  9
$CHAMFERA
 40
0.0
  9
$CHAMFERB
 40
0.0
  9
$CHAMFERC
 40
0.0
  9
$CHAMFERD
 40
0.0
  9
$SKPOLY
 70
     0
  9
$TDCREATE
 40
2459565.647792049
  9
$TDUCREATE
 40
2459565.814458715
  9
$TDUPDATE
 40
2459565.647861134
  9
$TDUUPDATE
 40
2459565.814527801
  9
$TDINDWG
 40
0.0000000116
  9
$TDUSRTIMER
 40
0.0000000116
  9
$USRTIMER
 70
     1
  9
$ANGBASE
 50
0.0
  9
$ANGDIR
 70
     0
  9
$PDMODE
 70
     0
  9
$PDSIZE
 40
-1.0
  9
$PLINEWID
 40
0.0
  9
$SPLFRAME
 70
     0
  9
$SPLINETYPE
 70
     6
  9
$SPLINESEGS
 70
     8
  9
$HANDSEED
  5
102
  9
$SURFTAB1
 70
     6
  9
$SURFTAB2
 70
     6
  9
$SURFTYPE
 70
     6
  9
$SURFU
 70
     6
  9
$SURFV
 70
     6
  9
$UCSBASE
  2

  9
$UCSNAME
  2

  9
$UCSORG
 10
0.0
 20
0.0
 30
0.0
  9
$UCSXDIR
 10
1.0
 20
0.0
 30
0.0
  9
$UCSYDIR
 10
0.0
 20
1.0
 30
0.0
  9
$UCSORTHOREF
  2

  9
$UCSORTHOVIEW
 70
     0
  9
$UCSORGTOP
 10
0.0
 20
0.0
 30
0.0
  9
$UCSORGBOTTOM
 10
0.0
 20
0.0
 30
0.0
  9
$UCSORGLEFT
 10
0.0
 20
0.0
 30
0.0
  9
$UCSORGRIGHT
 10
0.0
 20
0.0
 30
0.0
  9
$UCSORGFRONT
 10
0.0
 20
0.0
 30
0.0
  9
$UCSORGBACK
 10
0.0
 20
0.0
 30
0.0
  9
$PUCSBASE
  2

  9
$PUCSNAME
  2

  9
$PUCSORG
 10
0.0
 20
0.0
 30
0.0
  9
$PUCSXDIR
 10
1.0
 20
0.0
 30
0.0
  9
$PUCSYDIR
 10
0.0
 20
1.0
 30
0.0
  9
$PUCSORTHOREF
  2

  9
$PUCSORTHOVIEW
 70
     0
  9
$PUCSORGTOP
 10
0.0
 20
0.0
 30
0.0
  9
$PUCSORGBOTTOM
 10
0.0
 20
0.0
 30
0.0
  9
$PUCSORGLEFT
 10
0.0
 20
0.0
 30
0.0
  9
$PUCSORGRIGHT
 10
0.0
 20
0.0
 30
0.0
  9
$PUCSORGFRONT
 10
0.0
 20
0.0
 30
0.0
  9
$PUCSORGBACK
 10
0.0
 20
0.0
 30
0.0
  9
$USERI1
 70
     0
  9
$USERI2
 70
     0
  9
$USERI3
 70
     0
  9
$USERI4
 70
     0
  9
$USERI5
 70
     0
  9
$USERR1
 40
0.0
  9
$USERR2
 40
0.0
  9
$USERR3
 40
0.0
  9
$USERR4
 40
0.0
  9
$USERR5
 40
0.0
  9
$WORLDVIEW
 70
     1
  9
$SHADEDGE
 70
     3
  9
$SHADEDIF
 70
    70
  9
$TILEMODE
 70
     1
  9
$MAXACTVP
 70
    64
  9
$PINSBASE
 10
0.0
 20
0.0
 30
0.0
  9
$PLIMCHECK
 70
     0
  9
$PEXTMIN
 10
1.0000000000E+20
 20
1.0000000000E+20
 30
1.0000000000E+20
  9
$PEXTMAX
 10
-1.0000000000E+20
 20
-1.0000000000E+20
 30
-1.0000000000E+20
  9
$PLIMMIN
 10
0.0
 20
0.0
  9
$PLIMMAX
 10
420.0
 20
297.0
  9
$UNITMODE
 70
     0
  9
$VISRETAIN
 70
     1
  9
$PLINEGEN
 70
     0
  9
$PSLTSCALE
 70
     1
  9
$TREEDEPTH
 70
  3020
  9
$CMLSTYLE
  2
Standard
  9
$CMLJUST
 70
     0
  9
$CMLSCALE
 40
20.0
  9
$PROXYGRAPHICS
 70
     1
  9
$MEASUREMENT
 70
     1
  9
$CELWEIGHT
370
    -1
  9
$ENDCAPS
280
     0
  9
$JOINSTYLE
280
     0
  9
$LWDISPLAY
290
     1
  9
$INSUNITS
 70
     4
  9
$HYPERLINKBASE
  1

  9
$STYLESHEET
  1

  9
$XEDIT
290
     1
  9
$CEPSNTYPE
380
     0
  9
$PSTYLEMODE
290
     1
  9
$FINGERPRINTGUID
  2
{3B6F2B9F-2F6D-41E8-B83F-632A065DDDCA}
  9
$VERSIONGUID
  2
{FAEB1C32-E019-11D5-929B-00C0DF256EC4}
  9
$EXTNAMES
290
     1
  9
$PSVPSCALE
 40
0.0
  9
$OLESTARTUP
290
     0
  0
ENDSEC
  0
SECTION
  2
CLASSES
  0
CLASS
  1
ACDBDICTIONARYWDFLT
  2
AcDbDictionaryWithDefault
  3
ObjectDBX Classes
 90
        0
280
     0
281
     0
  0
CLASS
  1
VISUALSTYLE
  2
AcDbVisualStyle
  3
ObjectDBX Classes
 90
     4095
280
     0
281
     0
  0
CLASS
  1
MATERIAL
  2
AcDbMaterial
  3
ObjectDBX Classes
 90
     1153
280
     0
281
     0
  0
CLASS
  1
SCALE
  2
AcDbScale
  3
ObjectDBX Classes
 90
     1153
280
     0
281
     0
  0
CLASS
  1
TABLESTYLE
  2
AcDbTableStyle
  3
ObjectDBX Classes
 90
     4095
280
     0
281
     0
  0
CLASS
  1
MLEADERSTYLE
  2
AcDbMLeaderStyle
  3
ACDB_MLEADERSTYLE_CLASS
 90
     4095
280
     0
281
     0
  0
CLASS
  1
SUN
  2
AcDbSun
  3
SCENEOE
 90
     1153
280
     0
281
     0
  0
CLASS
  1
ACDBPLACEHOLDER
  2
AcDbPlaceHolder
  3
ObjectDBX Classes
 90
        0
280
     0
281
     0
  0
CLASS
  1
LAYOUT
  2
AcDbLayout
  3
ObjectDBX Classes
 90
        0
280
     0
281
     0
  0
ENDSEC
  0
SECTION
  2
TABLES
  0
TABLE
  2
VPORT
  5
8
330
0
100
AcDbSymbolTable
 70
     1
  0
VPORT
  5
29
330
8
100
AcDbSymbolTableRecord
100
AcDbViewportTableRecord
  2
*Active
 70
     0
 10
0.0
 20
0.0
 11
1.0
 21
1.0
 12
0.0
 22
-0.65
 13
0.0
 23
0.0
 14
10.0
 24
10.0
 15
10.0
 25
10.0
 16
0.0
 26
0.0
 36
1.0
 17
0.0
 27
0.0
 37
0.0
 40
145.8037470828
 41
1.3308968457
 42
50.0
 43
0.0
 44
0.0
 50
0.0
 51
0.0
 71
     0
 72
   100
 73
     1
 74
     3
 75
     0
 76
     0
 77
     0
 78
     0
281
     0
 65
     1
110
0.0
120
0.0
130
0.0
111
1.0
121
0.0
131
0.0
112
0.0
122
1.0
132
0.0
 79
     0
146
0.0
  0
ENDTAB
  0
TABLE
  2
LTYPE
  5
5
330
0
100
AcDbSymbolTable
 70
     6
  0
LTYPE
  5
14
330
5
100
AcDbSymbolTableRecord
100
AcDbLinetypeTableRecord
  2
ByBlock
 70
     0
  3

 72
    65
 73
     0
 40
0.0
  0
LTYPE
  5
15
330
5
100
AcDbSymbolTableRecord
100
AcDbLinetypeTableRecord
  2
ByLayer
 70
     0
  3

 72
    65
 73
     0
 40
0.0
  0
LTYPE
  5
16
330
5
100
AcDbSymbolTableRecord
100
AcDbLinetypeTableRecord
  2
Continuous
 70
     0
  3
Solid line
 72
    65
 73
     0
 40
0.0
  0
LTYPE
  5
6E
330
5
100
AcDbSymbolTableRecord
100
AcDbLinetypeTableRecord
  2
HIDDEN
 70
     0
  3
Hidden __ __ __ __ __ __ __ __ __ __ __ __ __ __
 72
    65
 73
     2
 40
1.905
 49
1.27
 74
     0
 49
-0.635
 74
     0
  0
LTYPE
  5
6F
330
5
100
AcDbSymbolTableRecord
100
AcDbLinetypeTableRecord
  2
PHANTOM
 70
     0
  3
Phantom ______  __  __  ______  __  __  ______
 72
    65
 73
     6
 40
12.7
 49
6.35
 74
     0
 49
-1.27
 74
     0
 49
1.27
 74
     0
 49
-1.27
 74
     0
 49
1.27
 74
     0
 49
-1.27
 74
     0
  0
LTYPE
  5
70
330
5
100
AcDbSymbolTableRecord
100
AcDbLinetypeTableRecord
  2
CENTER
 70
     0
  3
Center ____ _ ____ _ ____ _ ____ _ ____ _ ____
 72
    65
 73
     4
 40
10.16
 49
6.35
 74
     0
 49
-1.27
 74
     0
 49
1.27
 74
     0
 49
-1.27
 74
     0
  0
LTYPE
  5
71
330
5
100
AcDbSymbolTableRecord
100
AcDbLinetypeTableRecord
  2
CENTERX2
 70
     0
  3
Center (2x) ________  __  ________  __  _____
 72
    65
 73
     4
 40
20.32
 49
12.7
 74
     0
 49
-2.54
 74
     0
 49
2.54
 74
     0
 49
-2.54
 74
     0
  0
LTYPE
  5
72
330
5
100
AcDbSymbolTableRecord
100
AcDbLinetypeTableRecord
  2
DOT2
 70
     0
  3
Dot (.5x) ........................................
 72
    65
 73
     2
 40
0.635
 49
0.0
 74
     0
 49
-0.635
 74
     0
  0
ENDTAB
  0
TABLE
  2
LAYER
  5
2
330
0
100
AcDbSymbolTable
 70
     1
  0
LAYER
  5
10
330
2
100
AcDbSymbolTableRecord
100
AcDbLayerTableRecord
  2
0
 70
     0
 62
     7
  6
Continuous
370
    -3
390
F
  0
ENDTAB
  0
TABLE
  2
STYLE
  5
3
330
0
100
AcDbSymbolTable
 70
     1
  0
STYLE
  5
11
330
3
100
AcDbSymbolTableRecord
100
AcDbTextStyleTableRecord
  2
Standard
 70
     0
 40
0.0
 41
1.0
 50
0.0
 71
     0
 42
3.5
  3
txt
  4

  0
ENDTAB
  0
TABLE
  2
VIEW
  5
6
330
0
100
AcDbSymbolTable
 70
     0
  0
ENDTAB
  0
TABLE
  2
UCS
  5
7
330
0
100
AcDbSymbolTable
 70
     0
  0
ENDTAB
  0
TABLE
  2
APPID
  5
9
330
0
100
AcDbSymbolTable
 70
     1
  0
APPID
  5
12
330
9
100
AcDbSymbolTableRecord
100
AcDbRegAppTableRecord
  2
ACAD
 70
     0
  0
ENDTAB
  0
TABLE
  2
DIMSTYLE
  5
A
330
0
100
AcDbSymbolTable
 70
     1
100
AcDbDimStyleTable
  0
DIMSTYLE
105
27
330
A
100
AcDbSymbolTableRecord
100
AcDbDimStyleTableRecord
  2
ISO-25
 70
     0
 41
2.5
 42
0.625
 43
3.75
 44
1.25
 73
     0
 74
     0
 77
     1
 78
     8
140
2.5
141
2.5
143
0.0393700787
147
0.625
171
     3
172
     1
178
     0
271
     2
272
     2
274
     3
278
    44
283
     0
284
     8
340
11
  0
ENDTAB
  0
TABLE
  2
BLOCK_RECORD
  5
1
330
0
100
AcDbSymbolTable
 70
     1
  0
BLOCK_RECORD
  5
1F
330
1
100
AcDbSymbolTableRecord
100
AcDbBlockTableRecord
  2
*Model_Space
340
22
  0
BLOCK_RECORD
  5
1B
330
1
100
AcDbSymbolTableRecord
100
AcDbBlockTableRecord
  2
*Paper_Space
340
1E
  0
BLOCK_RECORD
  5
23
330
1
100
AcDbSymbolTableRecord
100
AcDbBlockTableRecord
  2
*Paper_Space0
340
26
  0
ENDTAB
  0
ENDSEC
  0
SECTION
  2
BLOCKS
  0
BLOCK
  5
20
330
1F
100
AcDbEntity
  8
0
100
AcDbBlockBegin
  2
*Model_Space
 70
     0
 10
0.0
 20
0.0
 30
0.0
  3
*Model_Space
  1

  0
ENDBLK
  5
21
330
1F
100
AcDbEntity
  8
0
100
AcDbBlockEnd
  0
BLOCK
  5
1C
330
1B
100
AcDbEntity
 67
     1
  8
0
100
AcDbBlockBegin
  2
*Paper_Space
 70
     0
 10
0.0
 20
0.0
 30
0.0
  3
*Paper_Space
  1

  0
ENDBLK
  5
1D
330
1B
100
AcDbEntity
 67
     1
  8
0
100
AcDbBlockEnd
  0
BLOCK
  5
24
330
23
100
AcDbEntity
  8
0
100
AcDbBlockBegin
  2
*Paper_Space0
 70
     0
 10
0.0
 20
0.0
 30
0.0
  3
*Paper_Space0
  1

  0
ENDBLK
  5
25
330
23
100
AcDbEntity
  8
0
100
AcDbBlockEnd
  0
ENDSEC
  0
SECTION
  2
ENTITIES
  0
LINE
  5
73
330
1F
100
AcDbEntity
  8
0
  6
Continuous
 62
     7
370
    15
100
AcDbLine
 10
-80.3705128205
 20
10.5
 30
0.0
 11
-75.9260016026
 21
-0.5
 31
0.0
  0
LINE
  5
74
330
1F
100
AcDbEntity
  8
0
  6
Continuous
 62
     7
370
    15
100
AcDbLine
 10
-78.2639423077
 20
10.5
 30
0.0
 11
-80.3705128205
 21
10.5
 31
0.0
  0
LINE
  5
75
330
1F
100
AcDbEntity
  8
0
  6
Continuous
 62
     7
370
    15
100
AcDbLine
 10
-77.408974359
 20
8.2435897436
 30
0.0
 11
-78.2639423077
 21
10.5
 31
0.0
  0
LINE
  5
76
330
1F
100
AcDbEntity
  8
0
  6
Continuous
 62
     7
370
    15
100
AcDbLine
 10
-72.6163060897
 20
8.2435897436
 30
0.0
 11
-77.408974359
 21
8.2435897436
 31
0.0
  0
LINE
  5
77
330
1F
100
AcDbEntity
  8
0
  6
Continuous
 62
     7
370
    15
100
AcDbLine
 10
-71.761338141
 20
10.5
 30
0.0
 11
-72.6163060897
 21
8.2435897436
 31
0.0
  0
LINE
  5
78
330
1F
100
AcDbEntity
  8
0
  6
Continuous
 62
     7
370
    15
100
AcDbLine
 10
-69.6525641026
 20
10.5
 30
0.0
 11
-71.761338141
 21
10.5
 31
0.0
  0
LINE
  5
79
330
1F
100
AcDbEntity
  8
0
  6
Continuous
 62
     7
370
    15
100
AcDbLine
 10
-74.0948717949
 20
-0.5
 30
0.0
 11
-69.6525641026
 21
10.5
 31
0.0
  0
LINE
  5
7A
330
1F
100
AcDbEntity
  8
0
  6
Continuous
 62
     7
370
    15
100
AcDbLine
 10
-75.9260016026
 20
-0.5
 30
0.0
 11
-74.0948717949
 21
-0.5
 31
0.0
  0
LINE
  5
7B
330
1F
100
AcDbEntity
  8
0
  6
Continuous
 62
     7
370
    15
100
AcDbLine
 10
74.7911858974
 20
10.5
 30
0.0
 11
71.6974358974
 21
10.5
 31
0.0
  0
SPLINE
  5
7C
330
1F
100
AcDbEntity
  8
0
  6
Continuous
 62
     7
370
    15
100
AcDbSpline
210
0.0
220
0.0
230
1.0
 70
     8
 71
     3
 72
    23
 73
    19
 74
     0
 42
0.000000001
 43
0.00000001
 40
0.0
 40
0.0
 40
0.0
 40
0.0
 40
0.0802641136075062
 40
0.1584807277536652
 40
0.2362171838365443
 40
0.3147238196688075
 40
0.3928458216771409
 40
0.4686444438773676
 40
0.542699248482493
 40
0.6172920148740458
 40
0.6559515662731409
 40
0.6970397339065303
 40
0.7406598521388927
 40
0.7867731540855949
 40
0.8355683813850595
 40
0.8872421605004016
 40
0.9418938819013511
 40
0.9999999999999999
 40
0.9999999999999999
 40
0.9999999999999999
 40
0.9999999999999999
 10
78.60769230769229
 20
7.315905448717944
 30
0.0
 10
78.6018084527702
 20
7.466220380856246
 30
0.0
 10
78.59019083727388
 20
7.763015782522445
 30
0.0
 10
78.49618329457346
 20
8.197108583709609
 30
0.0
 10
78.34613318493054
 20
8.610765963010781
 30
0.0
 10
78.1357449258702
 20
8.997356708106981
 30
0.0
 10
77.87939412362803
 20
9.350020067157015
 30
0.0
 10
77.58586405738593
 20
9.661492766604988
 30
0.0
 10
77.25486651478235
 20
9.922332260520074
 30
0.0
 10
76.95153128942938
 20
10.10018232353644
 30
0.0
 10
76.68777156966387
 20
10.2187690747881
 30
0.0
 10
76.46840500811628
 20
10.29143097474251
 30
0.0
 10
76.23295390761479
 20
10.35878035734965
 30
0.0
 10
75.97878160875412
 20
10.41095864332814
 30
0.0
 10
75.70715574908732
 20
10.44983713573459
 30
0.0
 10
75.41820047566237
 20
10.47816235502286
 30
0.0
 10
75.110919209102
 20
10.49602648850525
 30
0.0
 10
74.89991837577065
 20
10.49864871836386
 30
0.0
 10
74.7911858974359
 20
10.5
 30
0.0
  0
SPLINE
  5
7D
330
1F
100
AcDbEntity
  8
0
  6
Continuous
 62
     7
370
    15
100
AcDbSpline
210
0.0
220
0.0
230
1.0
 70
     8
 71
     3
 72
    23
 73
    19
 74
     0
 42
0.000000001
 43
0.00000001
 40
0.0
 40
0.0
 40
0.0
 40
0.0
 40
0.0727688257083486
 40
0.1426795345295702
 40
0.2094269283542678
 40
0.2746319441020428
 40
0.3368314137124336
 40
0.3976305532729106
 40
0.4568978557111168
 40
0.5151388068997408
 40
0.5731625673544153
 40
0.6310985730168305
 40
0.6890150595572366
 40
0.7488204473412137
 40
0.8092839178879004
 40
0.8707550277886198
 40
0.9342854386219495
 40
1.0
 40
1.0
 40
1.0
 40
1.0
 10
76.76113782051281
 20
4.488782051282048
 30
0.0
 10
76.83870129171144
 20
4.528365005443465
 30
0.0
 10
76.9907817995305
 20
4.605976227283047
 30
0.0
 10
77.20655770625457
 20
4.73369221197245
 30
0.0
 10
77.40684518204115
 20
4.868982177101571
 30
0.0
 10
77.5902541770831
 20
5.011637505735168
 30
0.0
 10
77.76112742464854
 20
5.158826215222732
 30
0.0
 10
77.9088554482861
 20
5.319563862504875
 30
0.0
 10
78.04803329227718
 20
5.481443666846966
 30
0.0
 10
78.16718688780958
 20
5.654897925651045
 30
0.0
 10
78.27020696825292
 20
5.836220484706973
 30
0.0
 10
78.36159961687748
 20
6.0233612438674
 30
0.0
 10
78.43624969348589
 20
6.220041568942434
 30
0.0
 10
78.50051006328809
 20
6.42344823897497
 30
0.0
 10
78.54920570497222
 20
6.635682771847653
 30
0.0
 10
78.5806997391444
 20
6.855421962859055
 30
0.0
 10
78.60486122952786
 20
7.082536973594295
 30
0.0
 10
78.60673804268981
 20
7.237244473797319
 30
0.0
 10
78.60769230769229
 20
7.315905448717944
 30
0.0
  0
SPLINE
  5
7E
330
1F
100
AcDbEntity
  8
0
  6
Continuous
 62
     7
370
    15
100
AcDbSpline
210
0.0
220
0.0
230
1.0
 70
     8
 71
     3
 72
    15
 73
    11
 74
     0
 42
0.000000001
 43
0.00000001
 40
0.0
 40
0.0
 40
0.0
 40
0.0
 40
0.1233078016665092
 40
0.2428618673804754
 40
0.359429392775771
 40
0.4747833346277202
 40
0.5943761998015052
 40
0.7201703648697746
 40
0.8550989510831174
 40
1.0
 40
1.0
 40
1.0
 40
1.0
 10
77.90256410256409
 20
2.368990384615382
 30
0.0
 10
77.8991244570223
 20
2.472033171730303
 30
0.0
 10
77.89234987562416
 20
2.674981917556621
 30
0.0
 10
77.84036074502123
 20
2.971696645071559
 30
0.0
 10
77.75657721226021
 20
3.253683532545206
 30
0.0
 10
77.63818368240308
 20
3.52338408072639
 30
0.0
 10
77.47924675234226
 20
3.780389865718001
 30
0.0
 10
77.28104839662275
 20
4.029576340379293
 30
0.0
 10
77.03865872553011
 20
4.267541133598192
 30
0.0
 10
76.85581680591174
 20
4.413303536920301
 30
0.0
 10
76.76113782051281
 20
4.488782051282048
 30
0.0
  0
SPLINE
  5
7F
330
1F
100
AcDbEntity
  8
0
  6
Continuous
 62
     7
370
    15
100
AcDbSpline
210
0.0
220
0.0
230
1.0
 70
     8
 71
     3
 72
    23
 73
    19
 74
     0
 42
0.000000001
 43
0.00000001
 40
0.0
 40
0.0
 40
0.0
 40
0.0
 40
0.0687424380096531
 40
0.1348947316569893
 40
0.1996997810070113
 40
0.2629456432476988
 40
0.325322342275438
 40
0.3869274102675122
 40
0.4489921402817537
 40
0.5106955942907309
 40
0.5720441202147459
 40
0.6326422467519276
 40
0.6929421975036821
 40
0.7524173710371219
 40
0.812757546661627
 40
0.8734927990612066
 40
0.9357833059030919
 40
0.9999999999999999
 40
0.9999999999999999
 40
0.9999999999999999
 40
0.9999999999999999
 10
75.70344551282051
 20
-0.3038862179487208
 30
0.0
 10
75.78616623251105
 20
-0.281058627611344
 30
0.0
 10
75.94849084025283
 20
-0.2362635670622301
 30
0.0
 10
76.18100374289673
 20
-0.1458143835998175
 30
0.0
 10
76.40152743077681
 20
-0.0452125389686141
 30
0.0
 10
76.61001367973728
 20
0.0693319658695306
 30
0.0
 10
76.80399677620451
 20
0.1999553835485646
 30
0.0
 10
76.98613581555986
 20
0.3441663093688221
 30
0.0
 10
77.1555835565862
 20
0.5020134850378891
 30
0.0
 10
77.30963906061082
 20
0.6744321670764367
 30
0.0
 10
77.44869019019542
 20
0.8568807631944156
 30
0.0
 10
77.5700025228233
 20
1.049444311668215
 30
0.0
 10
77.67478942515538
 20
1.249070841913259
 30
0.0
 10
77.75525098571977
 20
1.45920558799962
 30
0.0
 10
77.82281830515548
 20
1.674360756882386
 30
0.0
 10
77.86802228265925
 20
1.89890658605285
 30
0.0
 10
77.89835315245533
 20
2.130908765983974
 30
0.0
 10
77.90114627657572
 20
2.2888283552541
 30
0.0
 10
77.90256410256409
 20
2.368990384615382
 30
0.0
  0
SPLINE
  5
80
330
1F
100
AcDbEntity
  8
0
  6
Continuous
 62
     7
370
    15
100
AcDbSpline
210
0.0
220
0.0
230
1.0
 70
     8
 71
     3
 72
    15
 73
    11
 74
     0
 42
0.000000001
 43
0.00000001
 40
0.0
 40
0.0
 40
0.0
 40
0.0
 40
0.1639962778091432
 40
0.3173296884643053
 40
0.4580614196800938
 40
0.58818641582985
 40
0.7079510374084228
 40
0.816321388342753
 40
0.9135844418915918
 40
1.0
 40
1.0
 40
1.0
 40
1.0
 10
73.4602564102564
 20
-0.5000000000000036
 30
0.0
 10
73.58366508844843
 20
-0.5000168471555628
 30
0.0
 10
73.82245854112688
 20
-0.5000494460821759
 30
0.0
 10
74.16697160932964
 20
-0.4879140903152814
 30
0.0
 10
74.48575913840352
 20
-0.4724242675404197
 30
0.0
 10
74.7792101670699
 20
-0.4545127594397059
 30
0.0
 10
75.04721605681625
 20
-0.4247864849231511
 30
0.0
 10
75.28996138667479
 20
-0.3927953980150867
 30
0.0
 10
75.50654710251908
 20
-0.3544710113541998
 30
0.0
 10
75.64044864757301
 20
-0.3200706219205862
 30
0.0
 10
75.70344551282051
 20
-0.3038862179487208
 30
0.0
  0
LINE
  5
81
330
1F
100
AcDbEntity
  8
0
  6
Continuous
 62
     7
370
    15
100
AcDbLine
 10
71.6974358974
 20
-0.5
 30
0.0
 11
73.4602564103
 21
-0.5
 31
0.0
  0
LINE
  5
82
330
1F
100
AcDbEntity
  8
0
  6
Continuous
 62
     7
370
    15
100
AcDbLine
 10
71.6974358974
 20
10.5
 30
0.0
 11
71.6974358974
 21
-0.5
 31
0.0
  0
LINE
  5
83
330
1F
100
AcDbEntity
  8
0
  6
Continuous
 62
     7
370
    15
100
AcDbLine
 10
75.55
 20
56.5746331768
 30
0.0
 11
75.55
 21
58.2825929591
 31
0.0
  0
ARC
  5
84
330
1F
100
AcDbEntity
  8
0
  6
Continuous
 62
     7
370
    15
100
AcDbCircle
 10
74.8
 20
45.5
 30
0.0
 40
11.1
100
AcDbArc
 50
273.8742882063
 51
86.1257117937
  0
LINE
  5
85
330
1F
100
AcDbEntity
  8
0
  6
Continuous
 62
     7
370
    15
100
AcDbLine
 10
75.55
 20
34.4253668232
 30
0.0
 11
75.55
 21
32.7174070409
 31
0.0
  0
LINE
  5
86
330
1F
100
AcDbEntity
  8
0
  6
Continuous
 62
     7
370
    15
100
AcDbLine
 10
75.55
 20
32.7174070409
 30
0.0
 11
74.05
 21
32.7174070409
 31
0.0
  0
LINE
  5
87
330
1F
100
AcDbEntity
  8
0
  6
Continuous
 62
     7
370
    15
100
AcDbLine
 10
74.05
 20
34.4253668232
 30
0.0
 11
74.05
 21
32.7174070409
 31
0.0
  0
ARC
  5
88
330
1F
100
AcDbEntity
  8
0
  6
Continuous
 62
     7
370
    15
100
AcDbCircle
 10
74.8
 20
45.5
 30
0.0
 40
11.1
100
AcDbArc
 50
93.8742882063
 51
266.1257117937
  0
LINE
  5
89
330
1F
100
AcDbEntity
  8
0
  6
Continuous
 62
     7
370
    15
100
AcDbLine
 10
74.05
 20
56.5746331768
 30
0.0
 11
74.05
 21
58.2825929591
 31
0.0
  0
LINE
  5
8A
330
1F
100
AcDbEntity
  8
0
  6
Continuous
 62
     7
370
    15
100
AcDbLine
 10
74.05
 20
58.2825929591
 30
0.0
 11
75.55
 21
58.2825929591
 31
0.0
  0
LINE
  5
8B
330
1F
100
AcDbEntity
  8
0
  6
Continuous
 62
     7
370
    15
100
AcDbLine
 10
-75.55
 20
34.4253668232
 30
0.0
 11
-75.55
 21
32.7174070409
 31
0.0
  0
ARC
  5
8C
330
1F
100
AcDbEntity
  8
0
  6
Continuous
 62
     7
370
    15
100
AcDbCircle
 10
-74.8
 20
45.5
 30
0.0
 40
11.1
100
AcDbArc
 50
93.8742882063
 51
266.1257117937
  0
LINE
  5
8D
330
1F
100
AcDbEntity
  8
0
  6
Continuous
 62
     7
370
    15
100
AcDbLine
 10
-75.55
 20
56.5746331768
 30
0.0
 11
-75.55
 21
58.2825929591
 31
0.0
  0
LINE
  5
8E
330
1F
100
AcDbEntity
  8
0
  6
Continuous
 62
     7
370
    15
100
AcDbLine
 10
-75.55
 20
58.2825929591
 30
0.0
 11
-74.05
 21
58.2825929591
 31
0.0
  0
LINE
  5
8F
330
1F
100
AcDbEntity
  8
0
  6
Continuous
 62
     7
370
    15
100
AcDbLine
 10
-74.05
 20
56.5746331768
 30
0.0
 11
-74.05
 21
58.2825929591
 31
0.0
  0
ARC
  5
90
330
1F
100
AcDbEntity
  8
0
  6
Continuous
 62
     7
370
    15
100
AcDbCircle
 10
-74.8
 20
45.5
 30
0.0
 40
11.1
100
AcDbArc
 50
273.8742882063
 51
86.1257117937
  0
LINE
  5
91
330
1F
100
AcDbEntity
  8
0
  6
Continuous
 62
     7
370
    15
100
AcDbLine
 10
-74.05
 20
34.4253668232
 30
0.0
 11
-74.05
 21
32.7174070409
 31
0.0
  0
LINE
  5
92
330
1F
100
AcDbEntity
  8
0
  6
Continuous
 62
     7
370
    15
100
AcDbLine
 10
-74.05
 20
32.7174070409
 30
0.0
 11
-75.55
 21
32.7174070409
 31
0.0
  0
LINE
  5
93
330
1F
100
AcDbEntity
  8
0
  6
Continuous
 62
     7
370
    15
100
AcDbLine
 10
0.75
 20
-46.5
 30
0.0
 11
0.75
 21
-45.0721149715
 31
0.0
  0
LINE
  5
94
330
1F
100
AcDbEntity
  8
0
  6
Continuous
 62
     7
370
    15
100
AcDbLine
 10
0.75
 20
-46.5
 30
0.0
 11
-0.75
 21
-46.5
 31
0.0
  0
LINE
  5
95
330
1F
100
AcDbEntity
  8
0
  6
Continuous
 62
     7
370
    15
100
AcDbLine
 10
-0.75
 20
-46.5
 30
0.0
 11
-0.75
 21
-45.0721149715
 31
0.0
  0
ARC
  5
96
330
1F
100
AcDbEntity
  8
0
  6
Continuous
 62
     7
370
    15
100
AcDbCircle
 10
0.0
 20
-35.0
 30
0.0
 40
10.10000000000001
100
AcDbArc
 50
94.2585569557
 51
265.7414430443
  0
LINE
  5
97
330
1F
100
AcDbEntity
  8
0
  6
Continuous
 62
     7
370
    15
100
AcDbLine
 10
-0.75
 20
-23.5
 30
0.0
 11
-0.75
 21
-24.9278850285
 31
0.0
  0
LINE
  5
98
330
1F
100
AcDbEntity
  8
0
  6
Continuous
 62
     7
370
    15
100
AcDbLine
 10
-0.75
 20
-23.5
 30
0.0
 11
0.75
 21
-23.5
 31
0.0
  0
LINE
  5
99
330
1F
100
AcDbEntity
  8
0
  6
Continuous
 62
     7
370
    15
100
AcDbLine
 10
0.75
 20
-23.5
 30
0.0
 11
0.75
 21
-24.9278850285
 31
0.0
  0
ARC
  5
9A
330
1F
100
AcDbEntity
  8
0
  6
Continuous
 62
     7
370
    15
100
AcDbCircle
 10
0.0
 20
-35.0
 30
0.0
 40
10.10000000000001
100
AcDbArc
 50
274.2585569557
 51
85.7414430443
  0
CIRCLE
  5
9B
330
1F
100
AcDbEntity
  8
0
  6
Continuous
 62
     7
370
    15
100
AcDbCircle
 10
-90.1224250406
 20
65.8224250406
 30
0.0
 40
1.5
  0
CIRCLE
  5
9C
330
1F
100
AcDbEntity
  8
0
  6
Continuous
 62
     7
370
    15
100
AcDbCircle
 10
-90.1224250406
 20
-67.1224250406
 30
0.0
 40
1.5
  0
CIRCLE
  5
9D
330
1F
100
AcDbEntity
  8
0
  6
Continuous
 62
     7
370
    15
100
AcDbCircle
 10
0.0
 20
65.8224250406
 30
0.0
 40
1.500000000000001
  0
CIRCLE
  5
9E
330
1F
100
AcDbEntity
  8
0
  6
Continuous
 62
     7
370
    15
100
AcDbCircle
 10
0.0
 20
-67.1224250406
 30
0.0
 40
1.500000000000001
  0
CIRCLE
  5
9F
330
1F
100
AcDbEntity
  8
0
  6
Continuous
 62
     7
370
    15
100
AcDbCircle
 10
90.1224250406
 20
65.8224250406
 30
0.0
 40
1.500000000000014
  0
CIRCLE
  5
A0
330
1F
100
AcDbEntity
  8
0
  6
Continuous
 62
     7
370
    15
100
AcDbCircle
 10
90.1224250406
 20
-67.1224250406
 30
0.0
 40
1.500000000000014
  0
LINE
  5
A1
330
1F
100
AcDbEntity
  8
0
  6
Continuous
 62
     7
370
    15
100
AcDbLine
 10
-95.1224250406
 20
70.8224250406
 30
0.0
 11
95.1224250406
 21
70.8224250406
 31
0.0
  0
LINE
  5
A2
330
1F
100
AcDbEntity
  8
0
  6
Continuous
 62
     7
370
    15
100
AcDbLine
 10
-95.1224250406
 20
-72.1224250406
 30
0.0
 11
-95.1224250406
 21
70.8224250406
 31
0.0
  0
LINE
  5
A3
330
1F
100
AcDbEntity
  8
0
  6
Continuous
 62
     7
370
    15
100
AcDbLine
 10
95.1224250406
 20
-72.1224250406
 30
0.0
 11
-95.1224250406
 21
-72.1224250406
 31
0.0
  0
LINE
  5
A4
330
1F
100
AcDbEntity
  8
0
  6
Continuous
 62
     7
370
    15
100
AcDbLine
 10
95.1224250406
 20
70.8224250406
 30
0.0
 11
95.1224250406
 21
-72.1224250406
 31
0.0
  0
LINE
  5
A5
330
1F
100
AcDbEntity
  8
0
  6
Continuous
 62
     7
370
    15
100
AcDbLine
 10
75.25
 20
20.9751930067
 30
0.0
 11
76.25
 21
20.3751930067
 31
0.0
  0
LINE
  5
A6
330
1F
100
AcDbEntity
  8
0
  6
Continuous
 62
     7
370
    15
100
AcDbLine
 10
76.25
 20
20.3751930067
 30
0.0
 11
76.25
 21
20.2886127875
 31
0.0
  0
LINE
  5
A7
330
1F
100
AcDbEntity
  8
0
  6
Continuous
 62
     7
370
    15
100
AcDbLine
 10
76.25
 20
20.2886127875
 30
0.0
 11
76.55
 21
20.2886127875
 31
0.0
  0
LINE
  5
A8
330
1F
100
AcDbEntity
  8
0
  6
Continuous
 62
     7
370
    15
100
AcDbLine
 10
76.55
 20
20.2886127875
 30
0.0
 11
76.55
 21
19.9903703492
 31
0.0
  0
ARC
  5
A9
330
1F
100
AcDbEntity
  8
0
  6
Continuous
 62
     7
370
    15
100
AcDbCircle
 10
77.55
 20
19.9903703492
 30
0.0
 40
1.000000000000001
100
AcDbArc
 50
180.0
 51
229.67978493
  0
ARC
  5
AA
330
1F
100
AcDbEntity
  8
0
  6
Continuous
 62
     7
370
    15
100
AcDbCircle
 10
74.8
 20
16.75
 30
0.0
 40
3.250000000000001
100
AcDbArc
 50
130.32021507
 51
49.67978493
  0
ARC
  5
AB
330
1F
100
AcDbEntity
  8
0
  6
Continuous
 62
     7
370
    15
100
AcDbCircle
 10
72.05
 20
19.9903703492
 30
0.0
 40
1.000000000000014
100
AcDbArc
 50
310.32021507
 51
0.0
  0
LINE
  5
AC
330
1F
100
AcDbEntity
  8
0
  6
Continuous
 62
     7
370
    15
100
AcDbLine
 10
73.05
 20
19.9903703492
 30
0.0
 11
73.05
 21
26.5751930067
 31
0.0
  0
LINE
  5
AD
330
1F
100
AcDbEntity
  8
0
  6
Continuous
 62
     7
370
    15
100
AcDbLine
 10
73.05
 20
26.5751930067
 30
0.0
 11
74.65
 21
27.4989534374
 31
0.0
  0
LINE
  5
AE
330
1F
100
AcDbEntity
  8
0
  6
Continuous
 62
     7
370
    15
100
AcDbLine
 10
74.65
 20
27.4989534374
 30
0.0
 11
76.25
 21
26.5751930067
 31
0.0
  0
LINE
  5
AF
330
1F
100
AcDbEntity
  8
0
  6
Continuous
 62
     7
370
    15
100
AcDbLine
 10
76.25
 20
26.5751930067
 30
0.0
 11
76.25
 21
26.0751930067
 31
0.0
  0
LINE
  5
B0
330
1F
100
AcDbEntity
  8
0
  6
Continuous
 62
     7
370
    15
100
AcDbLine
 10
76.25
 20
26.0751930067
 30
0.0
 11
75.25
 21
25.4751930067
 31
0.0
  0
LINE
  5
B1
330
1F
100
AcDbEntity
  8
0
  6
Continuous
 62
     7
370
    15
100
AcDbLine
 10
75.25
 20
25.4751930067
 30
0.0
 11
76.25
 21
24.8751930067
 31
0.0
  0
LINE
  5
B2
330
1F
100
AcDbEntity
  8
0
  6
Continuous
 62
     7
370
    15
100
AcDbLine
 10
76.25
 20
24.8751930067
 30
0.0
 11
76.25
 21
24.5751930067
 31
0.0
  0
LINE
  5
B3
330
1F
100
AcDbEntity
  8
0
  6
Continuous
 62
     7
370
    15
100
AcDbLine
 10
76.25
 20
24.5751930067
 30
0.0
 11
75.25
 21
23.9751930067
 31
0.0
  0
LINE
  5
B4
330
1F
100
AcDbEntity
  8
0
  6
Continuous
 62
     7
370
    15
100
AcDbLine
 10
75.25
 20
23.9751930067
 30
0.0
 11
76.25
 21
23.3751930067
 31
0.0
  0
LINE
  5
B5
330
1F
100
AcDbEntity
  8
0
  6
Continuous
 62
     7
370
    15
100
AcDbLine
 10
76.25
 20
23.3751930067
 30
0.0
 11
76.25
 21
23.0751930067
 31
0.0
  0
LINE
  5
B6
330
1F
100
AcDbEntity
  8
0
  6
Continuous
 62
     7
370
    15
100
AcDbLine
 10
76.25
 20
23.0751930067
 30
0.0
 11
75.25
 21
22.4751930067
 31
0.0
  0
LINE
  5
B7
330
1F
100
AcDbEntity
  8
0
  6
Continuous
 62
     7
370
    15
100
AcDbLine
 10
75.25
 20
22.4751930067
 30
0.0
 11
76.25
 21
21.8751930067
 31
0.0
  0
LINE
  5
B8
330
1F
100
AcDbEntity
  8
0
  6
Continuous
 62
     7
370
    15
100
AcDbLine
 10
76.25
 20
21.8751930067
 30
0.0
 11
76.25
 21
21.5751930067
 31
0.0
  0
LINE
  5
B9
330
1F
100
AcDbEntity
  8
0
  6
Continuous
 62
     7
370
    15
100
AcDbLine
 10
76.25
 20
21.5751930067
 30
0.0
 11
75.25
 21
20.9751930067
 31
0.0
  0
LINE
  5
BA
330
1F
100
AcDbEntity
  8
0
  6
Continuous
 62
     7
370
    15
100
AcDbLine
 10
-3.8
 20
16.3
 30
0.0
 11
-3.8
 21
20.5
 31
0.0
  0
LINE
  5
BB
330
1F
100
AcDbEntity
  8
0
  6
Continuous
 62
     7
370
    15
100
AcDbLine
 10
-3.8
 20
20.5
 30
0.0
 11
-4.5
 21
20.5
 31
0.0
  0
LINE
  5
BC
330
1F
100
AcDbEntity
  8
0
  6
Continuous
 62
     7
370
    15
100
AcDbLine
 10
-4.5
 20
20.5
 30
0.0
 11
-4.5
 21
27.5
 31
0.0
  0
LINE
  5
BD
330
1F
100
AcDbEntity
  8
0
  6
Continuous
 62
     7
370
    15
100
AcDbLine
 10
-4.5
 20
27.5
 30
0.0
 11
4.5
 21
27.5
 31
0.0
  0
LINE
  5
BE
330
1F
100
AcDbEntity
  8
0
  6
Continuous
 62
     7
370
    15
100
AcDbLine
 10
4.5
 20
27.5
 30
0.0
 11
4.5
 21
20.5
 31
0.0
  0
LINE
  5
BF
330
1F
100
AcDbEntity
  8
0
  6
Continuous
 62
     7
370
    15
100
AcDbLine
 10
4.5
 20
20.5
 30
0.0
 11
-1.8
 21
20.5
 31
0.0
  0
LINE
  5
C0
330
1F
100
AcDbEntity
  8
0
  6
Continuous
 62
     7
370
    15
100
AcDbLine
 10
-1.8
 20
20.5
 30
0.0
 11
-1.8
 21
16.3
 31
0.0
  0
ARC
  5
C1
330
1F
100
AcDbEntity
  8
0
  6
Continuous
 62
     7
370
    15
100
AcDbCircle
 10
0.0
 20
16.3
 30
0.0
 40
1.8
100
AcDbArc
 50
180.0
 51
0.0
  0
LINE
  5
C2
330
1F
100
AcDbEntity
  8
0
  6
Continuous
 62
     7
370
    15
100
AcDbLine
 10
1.8
 20
16.3
 30
0.0
 11
1.8
 21
18.0
 31
0.0
  0
LINE
  5
C3
330
1F
100
AcDbEntity
  8
0
  6
Continuous
 62
     7
370
    15
100
AcDbLine
 10
1.8
 20
18.0
 30
0.0
 11
3.8
 21
18.0
 31
0.0
  0
LINE
  5
C4
330
1F
100
AcDbEntity
  8
0
  6
Continuous
 62
     7
370
    15
100
AcDbLine
 10
3.8
 20
18.0
 30
0.0
 11
3.8
 21
16.3
 31
0.0
  0
ARC
  5
C5
330
1F
100
AcDbEntity
  8
0
  6
Continuous
 62
     7
370
    15
100
AcDbCircle
 10
0.0
 20
16.3
 30
0.0
 40
3.799999999999999
100
AcDbArc
 50
180.0
 51
0.0
  0
LINE
  5
C6
330
1F
100
AcDbEntity
  8
0
  6
Continuous
 62
     7
370
    15
100
AcDbLine
 10
13.3784205182
 20
14.7984628339
 30
0.0
 11
13.3784205182
 21
16.4984628339
 31
0.0
  0
LINE
  5
C7
330
1F
100
AcDbEntity
  8
0
  6
Continuous
 62
     7
370
    15
100
AcDbLine
 10
13.3784205182
 20
16.4984628339
 30
0.0
 11
12.6784205182
 21
16.4984628339
 31
0.0
  0
LINE
  5
C8
330
1F
100
AcDbEntity
  8
0
  6
Continuous
 62
     7
370
    15
100
AcDbLine
 10
12.6784205182
 20
16.4984628339
 30
0.0
 11
12.6784205182
 21
23.4984628339
 31
0.0
  0
LINE
  5
C9
330
1F
100
AcDbEntity
  8
0
  6
Continuous
 62
     7
370
    15
100
AcDbLine
 10
12.6784205182
 20
23.4984628339
 30
0.0
 11
21.6784205182
 21
23.4984628339
 31
0.0
  0
LINE
  5
CA
330
1F
100
AcDbEntity
  8
0
  6
Continuous
 62
     7
370
    15
100
AcDbLine
 10
21.6784205182
 20
23.4984628339
 30
0.0
 11
21.6784205182
 21
16.4984628339
 31
0.0
  0
LINE
  5
CB
330
1F
100
AcDbEntity
  8
0
  6
Continuous
 62
     7
370
    15
100
AcDbLine
 10
21.6784205182
 20
16.4984628339
 30
0.0
 11
20.9784205182
 21
16.4984628339
 31
0.0
  0
LINE
  5
CC
330
1F
100
AcDbEntity
  8
0
  6
Continuous
 62
     7
370
    15
100
AcDbLine
 10
20.9784205182
 20
16.4984628339
 30
0.0
 11
20.9784205182
 21
14.7984628339
 31
0.0
  0
ARC
  5
CD
330
1F
100
AcDbEntity
  8
0
  6
Continuous
 62
     7
370
    15
100
AcDbCircle
 10
17.1784205182
 20
14.7984628339
 30
0.0
 40
3.800000000000001
100
AcDbArc
 50
180.0
 51
0.0
  0
LINE
  5
CE
330
1F
100
AcDbEntity
  8
0
  6
Continuous
 62
     7
370
    15
100
AcDbLine
 10
-76.25
 20
26.0751930067
 30
0.0
 11
-76.25
 21
26.5751930067
 31
0.0
  0
LINE
  5
CF
330
1F
100
AcDbEntity
  8
0
  6
Continuous
 62
     7
370
    15
100
AcDbLine
 10
-76.25
 20
26.5751930067
 30
0.0
 11
-74.65
 21
27.4989534374
 31
0.0
  0
LINE
  5
D0
330
1F
100
AcDbEntity
  8
0
  6
Continuous
 62
     7
370
    15
100
AcDbLine
 10
-74.65
 20
27.4989534374
 30
0.0
 11
-73.05
 21
26.5751930067
 31
0.0
  0
LINE
  5
D1
330
1F
100
AcDbEntity
  8
0
  6
Continuous
 62
     7
370
    15
100
AcDbLine
 10
-73.05
 20
26.5751930067
 30
0.0
 11
-73.05
 21
19.9903703492
 31
0.0
  0
ARC
  5
D2
330
1F
100
AcDbEntity
  8
0
  6
Continuous
 62
     7
370
    15
100
AcDbCircle
 10
-72.05
 20
19.9903703492
 30
0.0
 40
1.0
100
AcDbArc
 50
180.0
 51
229.67978493
  0
ARC
  5
D3
330
1F
100
AcDbEntity
  8
0
  6
Continuous
 62
     7
370
    15
100
AcDbCircle
 10
-74.8
 20
16.75
 30
0.0
 40
3.250000000000012
100
AcDbArc
 50
130.32021507
 51
49.67978493
  0
ARC
  5
D4
330
1F
100
AcDbEntity
  8
0
  6
Continuous
 62
     7
370
    15
100
AcDbCircle
 10
-77.55
 20
19.9903703492
 30
0.0
 40
1.000000000000014
100
AcDbArc
 50
310.32021507
 51
0.0
  0
LINE
  5
D5
330
1F
100
AcDbEntity
  8
0
  6
Continuous
 62
     7
370
    15
100
AcDbLine
 10
-76.55
 20
19.9903703492
 30
0.0
 11
-76.55
 21
20.2886127875
 31
0.0
  0
LINE
  5
D6
330
1F
100
AcDbEntity
  8
0
  6
Continuous
 62
     7
370
    15
100
AcDbLine
 10
-76.55
 20
20.2886127875
 30
0.0
 11
-76.25
 21
20.2886127875
 31
0.0
  0
LINE
  5
D7
330
1F
100
AcDbEntity
  8
0
  6
Continuous
 62
     7
370
    15
100
AcDbLine
 10
-76.25
 20
20.2886127875
 30
0.0
 11
-76.25
 21
20.3751930067
 31
0.0
  0
LINE
  5
D8
330
1F
100
AcDbEntity
  8
0
  6
Continuous
 62
     7
370
    15
100
AcDbLine
 10
-76.25
 20
20.3751930067
 30
0.0
 11
-75.25
 21
20.9751930067
 31
0.0
  0
LINE
  5
D9
330
1F
100
AcDbEntity
  8
0
  6
Continuous
 62
     7
370
    15
100
AcDbLine
 10
-75.25
 20
20.9751930067
 30
0.0
 11
-76.25
 21
21.5751930067
 31
0.0
  0
LINE
  5
DA
330
1F
100
AcDbEntity
  8
0
  6
Continuous
 62
     7
370
    15
100
AcDbLine
 10
-76.25
 20
21.5751930067
 30
0.0
 11
-76.25
 21
21.8751930067
 31
0.0
  0
LINE
  5
DB
330
1F
100
AcDbEntity
  8
0
  6
Continuous
 62
     7
370
    15
100
AcDbLine
 10
-76.25
 20
21.8751930067
 30
0.0
 11
-75.25
 21
22.4751930067
 31
0.0
  0
LINE
  5
DC
330
1F
100
AcDbEntity
  8
0
  6
Continuous
 62
     7
370
    15
100
AcDbLine
 10
-75.25
 20
22.4751930067
 30
0.0
 11
-76.25
 21
23.0751930067
 31
0.0
  0
LINE
  5
DD
330
1F
100
AcDbEntity
  8
0
  6
Continuous
 62
     7
370
    15
100
AcDbLine
 10
-76.25
 20
23.0751930067
 30
0.0
 11
-76.25
 21
23.3751930067
 31
0.0
  0
LINE
  5
DE
330
1F
100
AcDbEntity
  8
0
  6
Continuous
 62
     7
370
    15
100
AcDbLine
 10
-76.25
 20
23.3751930067
 30
0.0
 11
-75.25
 21
23.9751930067
 31
0.0
  0
LINE
  5
DF
330
1F
100
AcDbEntity
  8
0
  6
Continuous
 62
     7
370
    15
100
AcDbLine
 10
-75.25
 20
23.9751930067
 30
0.0
 11
-76.25
 21
24.5751930067
 31
0.0
  0
LINE
  5
E0
330
1F
100
AcDbEntity
  8
0
  6
Continuous
 62
     7
370
    15
100
AcDbLine
 10
-76.25
 20
24.5751930067
 30
0.0
 11
-76.25
 21
24.8751930067
 31
0.0
  0
LINE
  5
E1
330
1F
100
AcDbEntity
  8
0
  6
Continuous
 62
     7
370
    15
100
AcDbLine
 10
-76.25
 20
24.8751930067
 30
0.0
 11
-75.25
 21
25.4751930067
 31
0.0
  0
LINE
  5
E2
330
1F
100
AcDbEntity
  8
0
  6
Continuous
 62
     7
370
    15
100
AcDbLine
 10
-75.25
 20
25.4751930067
 30
0.0
 11
-76.25
 21
26.0751930067
 31
0.0
  0
LINE
  5
E3
330
1F
100
AcDbEntity
  8
0
  6
Continuous
 62
     7
370
    15
100
AcDbLine
 10
-21.6784205182
 20
23.4984628339
 30
0.0
 11
-12.6784205182
 21
23.4984628339
 31
0.0
  0
LINE
  5
E4
330
1F
100
AcDbEntity
  8
0
  6
Continuous
 62
     7
370
    15
100
AcDbLine
 10
-12.6784205182
 20
23.4984628339
 30
0.0
 11
-12.6784205182
 21
16.4984628339
 31
0.0
  0
LINE
  5
E5
330
1F
100
AcDbEntity
  8
0
  6
Continuous
 62
     7
370
    15
100
AcDbLine
 10
-12.6784205182
 20
16.4984628339
 30
0.0
 11
-13.3784205182
 21
16.4984628339
 31
0.0
  0
LINE
  5
E6
330
1F
100
AcDbEntity
  8
0
  6
Continuous
 62
     7
370
    15
100
AcDbLine
 10
-13.3784205182
 20
16.4984628339
 30
0.0
 11
-13.3784205182
 21
14.7984628339
 31
0.0
  0
ARC
  5
E7
330
1F
100
AcDbEntity
  8
0
  6
Continuous
 62
     7
370
    15
100
AcDbCircle
 10
-17.1784205182
 20
14.7984628339
 30
0.0
 40
3.800000000000004
100
AcDbArc
 50
180.0
 51
0.0
  0
LINE
  5
E8
330
1F
100
AcDbEntity
  8
0
  6
Continuous
 62
     7
370
    15
100
AcDbLine
 10
-20.9784205182
 20
14.7984628339
 30
0.0
 11
-20.9784205182
 21
16.4984628339
 31
0.0
  0
LINE
  5
E9
330
1F
100
AcDbEntity
  8
0
  6
Continuous
 62
     7
370
    15
100
AcDbLine
 10
-20.9784205182
 20
16.4984628339
 30
0.0
 11
-21.6784205182
 21
16.4984628339
 31
0.0
  0
LINE
  5
EA
330
1F
100
AcDbEntity
  8
0
  6
Continuous
 62
     7
370
    15
100
AcDbLine
 10
-21.6784205182
 20
16.4984628339
 30
0.0
 11
-21.6784205182
 21
23.4984628339
 31
0.0
  0
LINE
  5
EB
330
1F
100
AcDbEntity
  8
0
  6
Continuous
 62
     7
370
    15
100
AcDbLine
 10
74.2909855769
 20
1.4743589744
 30
0.0
 11
73.6717948718
 21
1.4743589744
 31
0.0
  0
SPLINE
  5
EC
330
1F
100
AcDbEntity
  8
0
  6
Continuous
 62
     7
370
    15
100
AcDbSpline
210
0.0
220
0.0
230
1.0
 70
     8
 71
     3
 72
    19
 73
    15
 74
     0
 42
0.000000001
 43
0.00000001
 40
0.0
 40
0.0
 40
0.0
 40
0.0
 40
0.1123176909025406
 40
0.2171617415079315
 40
0.3207358977705298
 40
0.4286893493222827
 40
0.4861254991326068
 40
0.5465765049052823
 40
0.6106705183481912
 40
0.6783790624362501
 40
0.7510371888561226
 40
0.8285849811679756
 40
0.9115049737330766
 40
1.0
 40
1.0
 40
1.0
 40
1.0
 10
75.92820512820512
 20
2.633413461538458
 30
0.0
 10
75.9244354781798
 20
2.54823009199743
 30
0.0
 10
75.91714701135147
 20
2.383531470360926
 30
0.0
 10
75.83499398357066
 20
2.152121828508966
 30
0.0
 10
75.70701563397094
 20
1.948111824861505
 30
0.0
 10
75.55819937211113
 20
1.806468247363292
 30
0.0
 10
75.41629301377537
 20
1.711236417881348
 30
0.0
 10
75.29414049235844
 20
1.647736589674936
 30
0.0
 10
75.15989976512809
 20
1.591353948504982
 30
0.0
 10
75.01027769376248
 20
1.551982201795942
 30
0.0
 10
74.84975772843833
 20
1.515027725962201
 30
0.0
 10
74.6748824837426
 20
1.492557411080817
 30
0.0
 10
74.48742159314048
 20
1.475971109731465
 30
0.0
 10
74.35786875724921
 20
1.474907879508367
 30
0.0
 10
74.29098557692306
 20
1.474358974358971
 30
0.0
  0
SPLINE
  5
ED
330
1F
100
AcDbEntity
  8
0
  6
Continuous
 62
     7
370
    15
100
AcDbSpline
210
0.0
220
0.0
230
1.0
 70
     8
 71
     3
 72
    19
 73
    15
 74
     0
 42
0.000000001
 43
0.00000001
 40
0.0
 40
0.0
 40
0.0
 40
0.0
 40
0.0887648308429536
 40
0.1713551338288974
 40
0.2480819556364482
 40
0.3211199534973263
 40
0.3888601443721388
 40
0.4520616053939575
 40
0.5122302123037793
 40
0.5695781645389812
 40
0.6769774789983366
 40
0.7810398434564737
 40
0.8869321650381328
 40
1.0
 40
1.0
 40
1.0
 40
1.0
 10
74.19623397435898
 20
3.871794871794868
 30
0.0
 10
74.26751084492979
 20
3.871176151051773
 30
0.0
 10
74.40510652983768
 20
3.869981748102667
 30
0.0
 10
74.60383458855503
 20
3.854489885212301
 30
0.0
 10
74.7886712504141
 20
3.828254674057109
 30
0.0
 10
74.95937197659798
 20
3.790873662099391
 30
0.0
 10
75.11693391881468
 20
3.745577239682822
 30
0.0
 10
75.25949101502434
 20
3.687964524640413
 30
0.0
 10
75.38750618386968
 20
3.619223540555054
 30
0.0
 10
75.538339470869
 20
3.51932631007679
 30
0.0
 10
75.69370678903242
 20
3.366345995800977
 30
0.0
 10
75.83282996023028
 20
3.150403230934822
 30
0.0
 10
75.91436602617223
 20
2.90045727115616
 30
0.0
 10
75.9234924011318
 20
2.72435177446968
 30
0.0
 10
75.92820512820512
 20
2.633413461538458
 30
0.0
  0
LINE
  5
EE
330
1F
100
AcDbEntity
  8
0
  6
Continuous
 62
     7
370
    15
100
AcDbLine
 10
73.6717948718
 20
3.8717948718
 30
0.0
 11
74.1962339744
 21
3.8717948718
 31
0.0
  0
LINE
  5
EF
330
1F
100
AcDbEntity
  8
0
  6
Continuous
 62
     7
370
    15
100
AcDbLine
 10
73.6717948718
 20
1.4743589744
 30
0.0
 11
73.6717948718
 21
3.8717948718
 31
0.0
  0
LINE
  5
F0
330
1F
100
AcDbEntity
  8
0
  6
Continuous
 62
     7
370
    15
100
AcDbLine
 10
74.143349359
 20
5.7051282051
 30
0.0
 11
73.6717948718
 21
5.7051282051
 31
0.0
  0
SPLINE
  5
F1
330
1F
100
AcDbEntity
  8
0
  6
Continuous
 62
     7
370
    15
100
AcDbSpline
210
0.0
220
0.0
230
1.0
 70
     8
 71
     3
 72
    23
 73
    19
 74
     0
 42
0.000000001
 43
0.00000001
 40
0.0
 40
0.0
 40
0.0
 40
0.0
 40
0.0528038896041942
 40
0.1028477719876497
 40
0.1516336500453415
 40
0.199492735616522
 40
0.2476904783705141
 40
0.296169394294274
 40
0.3462043712799577
 40
0.3984355106402354
 40
0.4541947959278148
 40
0.5142481968338255
 40
0.5792716717573069
 40
0.6501859388279823
 40
0.7275668778331102
 40
0.811532169748305
 40
0.9025173432274202
 40
1.0
 40
1.0
 40
1.0
 40
1.0
 10
76.63333333333333
 20
7.238782051282048
 30
0.0
 10
76.63168264722344
 20
7.180668162947874
 30
0.0
 10
76.62846755473832
 20
7.067477941895784
 30
0.0
 10
76.60212628074042
 20
6.902067683623016
 30
0.0
 10
76.55446843258736
 20
6.747534823404897
 30
0.0
 10
76.4935039302702
 20
6.599871759354928
 30
0.0
 10
76.41119721443316
 20
6.463105671257685
 30
0.0
 10
76.3106556282657
 20
6.336326041568139
 30
0.0
 10
76.19277289597441
 20
6.219159172492949
 30
0.0
 10
76.05717669291035
 20
6.109828826463366
 30
0.0
 10
75.89974043740533
 20
6.011621850511318
 30
0.0
 10
75.71684267121161
 20
5.932192452407101
 30
0.0
 10
75.51320859679667
 20
5.860536650330936
 30
0.0
 10
75.28485167334104
 20
5.80514593999252
 30
0.0
 10
75.03356009853643
 20
5.757636567552403
 30
0.0
 10
74.75715565696778
 20
5.729387067463756
 30
0.0
 10
74.45804445850722
 20
5.708335107661547
 30
0.0
 10
74.2506312688428
 20
5.70622146215397
 30
0.0
 10
74.14334935897435
 20
5.705128205128201
 30
0.0
  0
SPLINE
  5
F2
330
1F
100
AcDbEntity
  8
0
  6
Continuous
 62
     7
370
    15
100
AcDbSpline
210
0.0
220
0.0
230
1.0
 70
     8
 71
     3
 72
    23
 73
    19
 74
     0
 42
0.000000001
 43
0.00000001
 40
0.0
 40
0.0
 40
0.0
 40
0.0
 40
0.1096048279269787
 40
0.2107289586479172
 40
0.3021055522796411
 40
0.3852746914428719
 40
0.4593184430577141
 40
0.524848106274921
 40
0.5836422981936767
 40
0.6346413730195084
 40
0.6812015378015103
 40
0.7267984958730587
 40
0.7706516608835893
 40
0.8140165401416157
 40
0.8579456920328785
 40
0.9033057225776063
 40
0.9505279004805475
 40
0.9999999999999999
 40
0.9999999999999999
 40
0.9999999999999999
 40
0.9999999999999999
 10
74.2403044871795
 20
8.525641025641022
 30
0.0
 10
74.35269679812058
 20
8.52498735434632
 30
0.0
 10
74.56878504069714
 20
8.523730589714363
 30
0.0
 10
74.87837499958647
 20
8.508966428205664
 30
0.0
 10
75.15971713626071
 20
8.481582814929366
 30
0.0
 10
75.41287765427076
 20
8.449611123831586
 30
0.0
 10
75.63578437853873
 20
8.399058596556252
 30
0.0
 10
75.83250833926863
 20
8.346496984085988
 30
0.0
 10
75.9996406281634
 20
8.278887975727187
 30
0.0
 10
76.1400334805062
 20
8.200485743080788
 30
0.0
 10
76.25744934609966
 20
8.111798771538345
 30
0.0
 10
76.35912338551965
 20
8.01581667357344
 30
0.0
 10
76.44392713548407
 20
7.908566613960353
 30
0.0
 10
76.51212823158654
 20
7.792421079417225
 30
0.0
 10
76.56941986088249
 20
7.668451792398283
 30
0.0
 10
76.60451545515117
 20
7.532543770172027
 30
0.0
 10
76.63111098326092
 20
7.388923570109598
 30
0.0
 10
76.63258114718593
 20
7.289599594391798
 30
0.0
 10
76.63333333333333
 20
7.238782051282048
 30
0.0
  0
LINE
  5
F3
330
1F
100
AcDbEntity
  8
0
  6
Continuous
 62
     7
370
    15
100
AcDbLine
 10
73.6717948718
 20
8.5256410256
 30
0.0
 11
74.2403044872
 21
8.5256410256
 31
0.0
  0
LINE
  5
F4
330
1F
100
AcDbEntity
  8
0
  6
Continuous
 62
     7
370
    15
100
AcDbLine
 10
73.6717948718
 20
5.7051282051
 30
0.0
 11
73.6717948718
 21
8.5256410256
 31
0.0
  0
CIRCLE
  5
F5
330
1F
100
AcDbEntity
  8
0
  6
Continuous
 62
     7
370
    15
100
AcDbCircle
 10
74.8
 20
15.7
 30
0.0
 40
1.25
  0
ARC
  5
F6
330
1F
100
AcDbEntity
  8
0
  6
Continuous
 62
     7
370
    15
100
AcDbCircle
 10
17.1784205182
 20
14.7984628339
 30
0.0
 40
1.800000000000001
100
AcDbArc
 50
180.0
 51
0.0
  0
LINE
  5
F7
330
1F
100
AcDbEntity
  8
0
  6
Continuous
 62
     7
370
    15
100
AcDbLine
 10
18.9784205182
 20
16.4984628339
 30
0.0
 11
18.9784205182
 21
14.7984628339
 31
0.0
  0
LINE
  5
F8
330
1F
100
AcDbEntity
  8
0
  6
Continuous
 62
     7
370
    15
100
AcDbLine
 10
15.3784205182
 20
16.4984628339
 30
0.0
 11
18.9784205182
 21
16.4984628339
 31
0.0
  0
LINE
  5
F9
330
1F
100
AcDbEntity
  8
0
  6
Continuous
 62
     7
370
    15
100
AcDbLine
 10
15.3784205182
 20
14.7984628339
 30
0.0
 11
15.3784205182
 21
16.4984628339
 31
0.0
  0
ARC
  5
FA
330
1F
100
AcDbEntity
  8
0
  6
Continuous
 62
     7
370
    15
100
AcDbCircle
 10
-17.1784205182
 20
14.7984628339
 30
0.0
 40
1.800000000000002
100
AcDbArc
 50
180.0
 51
0.0
  0
LINE
  5
FB
330
1F
100
AcDbEntity
  8
0
  6
Continuous
 62
     7
370
    15
100
AcDbLine
 10
-15.3784205182
 20
16.4984628339
 30
0.0
 11
-15.3784205182
 21
14.7984628339
 31
0.0
  0
LINE
  5
FC
330
1F
100
AcDbEntity
  8
0
  6
Continuous
 62
     7
370
    15
100
AcDbLine
 10
-18.9784205182
 20
16.4984628339
 30
0.0
 11
-15.3784205182
 21
16.4984628339
 31
0.0
  0
LINE
  5
FD
330
1F
100
AcDbEntity
  8
0
  6
Continuous
 62
     7
370
    15
100
AcDbLine
 10
-18.9784205182
 20
14.7984628339
 30
0.0
 11
-18.9784205182
 21
16.4984628339
 31
0.0
  0
LINE
  5
FE
330
1F
100
AcDbEntity
  8
0
  6
Continuous
 62
     7
370
    15
100
AcDbLine
 10
-73.3633012821
 20
6.2692307692
 30
0.0
 11
-75.0115384615
 21
2.4505208333
 31
0.0
  0
LINE
  5
FF
330
1F
100
AcDbEntity
  8
0
  6
Continuous
 62
     7
370
    15
100
AcDbLine
 10
-76.659775641
 20
6.2692307692
 30
0.0
 11
-73.3633012821
 21
6.2692307692
 31
0.0
  0
LINE
  5
100
330
1F
100
AcDbEntity
  8
0
  6
Continuous
 62
     7
370
    15
100
AcDbLine
 10
-75.0115384615
 20
2.4505208333
 30
0.0
 11
-76.659775641
 21
6.2692307692
 31
0.0
  0
CIRCLE
  5
101
330
1F
100
AcDbEntity
  8
0
  6
Continuous
 62
     7
370
    15
100
AcDbCircle
 10
-74.8
 20
15.7
 30
0.0
 40
1.25
  0
ENDSEC
  0
SECTION
  2
OBJECTS
  0
DICTIONARY
  5
C
330
0
100
AcDbDictionary
281
     1
  3
ACAD_GROUP
350
D
  3
ACAD_LAYOUT
350
1A
  3
ACAD_MLINESTYLE
350
17
  3
ACAD_PLOTSETTINGS
350
19
  3
ACAD_PLOTSTYLENAME
350
E
  3
ACAD_SCALELIST
350
47
  0
DICTIONARY
  5
D
102
{ACAD_REACTORS
330
C
102
}
330
C
100
AcDbDictionary
281
     1
  0
DICTIONARY
  5
1A
102
{ACAD_REACTORS
330
C
102
}
330
C
100
AcDbDictionary
281
     1
  3
Layout1
350
1E
  3
Layout2
350
26
  3
Model
350
22
  0
DICTIONARY
  5
17
102
{ACAD_REACTORS
330
C
102
}
330
C
100
AcDbDictionary
281
     1
  3
Standard
350
18
  0
DICTIONARY
  5
19
102
{ACAD_REACTORS
330
C
102
}
330
C
100
AcDbDictionary
281
     1
  0
ACDBDICTIONARYWDFLT
  5
E
102
{ACAD_REACTORS
330
C
102
}
330
C
100
AcDbDictionary
281
     1
  3
Normal
350
F
100
AcDbDictionaryWithDefault
340
F
  0
DICTIONARY
  5
47
102
{ACAD_REACTORS
330
C
102
}
330
C
100
AcDbDictionary
281
     1
  3
A0
350
48
  3
A1
350
49
  3
A2
350
4A
  3
A3
350
4B
  3
A4
350
4C
  3
A5
350
4D
  3
A6
350
4E
  3
A7
350
4F
  3
A8
350
50
  3
A9
350
51
  3
B0
350
52
  3
B1
350
53
  3
B2
350
54
  3
B3
350
55
  3
B4
350
56
  3
B5
350
57
  3
B6
350
58
  3
B7
350
59
  3
B8
350
5A
  3
B9
350
5B
  3
C0
350
5C
  3
C1
350
5D
  3
C2
350
5E
  3
C3
350
5F
  3
C4
350
60
  3
C5
350
61
  3
C6
350
62
  3
C7
350
63
  3
C8
350
64
  3
C9
350
65
  3
D0
350
66
  3
D1
350
67
  3
D2
350
68
  0
LAYOUT
  5
1E
102
{ACAD_REACTORS
330
1A
102
}
330
1A
100
AcDbPlotSettings
  1

  2
none_device
  4

  6

 40
0.0
 41
0.0
 42
0.0
 43
0.0
 44
0.0
 45
0.0
 46
0.0
 47
0.0
 48
0.0
 49
0.0
140
0.0
141
0.0
142
1.0
143
1.0
 70
   688
 72
     1
 73
     0
 74
     5
  7

 75
    16
147
1.0
148
0.0
149
0.0
100
AcDbLayout
  1
Layout1
 70
     1
 71
     1
 10
0.0
 20
0.0
 11
420.0
 21
297.0
 12
0.0
 22
0.0
 32
0.0
 14
1.0000000000E+20
 24
1.0000000000E+20
 34
1.0000000000E+20
 15
-1.0000000000E+20
 25
-1.0000000000E+20
 35
-1.0000000000E+20
146
0.0
 13
0.0
 23
0.0
 33
0.0
 16
1.0
 26
0.0
 36
0.0
 17
0.0
 27
1.0
 37
0.0
 76
     0
330
1B
  0
LAYOUT
  5
26
102
{ACAD_REACTORS
330
1A
102
}
330
1A
100
AcDbPlotSettings
  1

  2
none_device
  4

  6

 40
0.0
 41
0.0
 42
0.0
 43
0.0
 44
0.0
 45
0.0
 46
0.0
 47
0.0
 48
0.0
 49
0.0
140
0.0
141
0.0
142
1.0
143
1.0
 70
   688
 72
     1
 73
     0
 74
     5
  7

 75
    16
147
1.0
148
0.0
149
0.0
100
AcDbLayout
  1
Layout2
 70
     1
 71
     2
 10
0.0
 20
0.0
 11
0.0
 21
0.0
 12
0.0
 22
0.0
 32
0.0
 14
0.0
 24
0.0
 34
0.0
 15
0.0
 25
0.0
 35
0.0
146
0.0
 13
0.0
 23
0.0
 33
0.0
 16
1.0
 26
0.0
 36
0.0
 17
0.0
 27
1.0
 37
0.0
 76
     0
330
23
  0
LAYOUT
  5
22
102
{ACAD_REACTORS
330
1A
102
}
330
1A
100
AcDbPlotSettings
  1

  2
none_device
  4
ANSI_A_(11.00_x_8.50_Inches)
  6

 40
6.35
 41
19.05
 42
6.35000508
 43
19.05000254
 44
279.4
 45
215.9
 46
133.34999746
 47
89.8450645224
 48
0.0
 49
0.0
140
0.0
141
0.0
142
0.0572420226
143
1.0
 70
  1696
 72
     0
 73
     0
 74
     0
  7

 75
     0
147
0.0179189148
148
-1300.4909072572
149
0.0
100
AcDbLayout
  1
Model
 70
     1
 71
     0
 10
0.0
 20
0.0
 11
420.0
 21
297.0
 12
0.0
 22
0.0
 32
0.0
 14
-95.1224250406
 24
-72.1224250406
 34
0.0
 15
95.1224250406
 25
70.8224250406
 35
0.0
146
0.0
 13
0.0
 23
0.0
 33
0.0
 16
1.0
 26
0.0
 36
0.0
 17
0.0
 27
1.0
 37
0.0
 76
     0
330
1F
331
29
  0
MLINESTYLE
  5
18
102
{ACAD_REACTORS
330
17
102
}
330
17
100
AcDbMlineStyle
  2
Standard
 70
     0
  3

 62
   256
 51
90.0
 52
90.0
 71
     2
 49
0.5
 62
   256
  6
BYLAYER
 49
-0.5
 62
   256
  6
BYLAYER
  0
ACDBPLACEHOLDER
  5
F
102
{ACAD_REACTORS
330
E
102
}
330
E
  0
SCALE
  5
48
102
{ACAD_REACTORS
330
47
102
}
330
47
100
AcDbScale
 70
     0
300
1:1
140
1.0
141
1.0
290
     1
  0
SCALE
  5
49
102
{ACAD_REACTORS
330
47
102
}
330
47
100
AcDbScale
 70
     0
300
1:2
140
1.0
141
2.0
290
     0
  0
SCALE
  5
4A
102
{ACAD_REACTORS
330
47
102
}
330
47
100
AcDbScale
 70
     0
300
1:4
140
1.0
141
4.0
290
     0
  0
SCALE
  5
4B
102
{ACAD_REACTORS
330
47
102
}
330
47
100
AcDbScale
 70
     0
300
1:5
140
1.0
141
5.0
290
     0
  0
SCALE
  5
4C
102
{ACAD_REACTORS
330
47
102
}
330
47
100
AcDbScale
 70
     0
300
1:8
140
1.0
141
8.0
290
     0
  0
SCALE
  5
4D
102
{ACAD_REACTORS
330
47
102
}
330
47
100
AcDbScale
 70
     0
300
1:10
140
1.0
141
10.0
290
     0
  0
SCALE
  5
4E
102
{ACAD_REACTORS
330
47
102
}
330
47
100
AcDbScale
 70
     0
300
1:16
140
1.0
141
16.0
290
     0
  0
SCALE
  5
4F
102
{ACAD_REACTORS
330
47
102
}
330
47
100
AcDbScale
 70
     0
300
1:20
140
1.0
141
20.0
290
     0
  0
SCALE
  5
50
102
{ACAD_REACTORS
330
47
102
}
330
47
100
AcDbScale
 70
     0
300
1:30
140
1.0
141
30.0
290
     0
  0
SCALE
  5
51
102
{ACAD_REACTORS
330
47
102
}
330
47
100
AcDbScale
 70
     0
300
1:40
140
1.0
141
40.0
290
     0
  0
SCALE
  5
52
102
{ACAD_REACTORS
330
47
102
}
330
47
100
AcDbScale
 70
     0
300
1:50
140
1.0
141
50.0
290
     0
  0
SCALE
  5
53
102
{ACAD_REACTORS
330
47
102
}
330
47
100
AcDbScale
 70
     0
300
1:100
140
1.0
141
100.0
290
     0
  0
SCALE
  5
54
102
{ACAD_REACTORS
330
47
102
}
330
47
100
AcDbScale
 70
     0
300
2:1
140
2.0
141
1.0
290
     0
  0
SCALE
  5
55
102
{ACAD_REACTORS
330
47
102
}
330
47
100
AcDbScale
 70
     0
300
4:1
140
4.0
141
1.0
290
     0
  0
SCALE
  5
56
102
{ACAD_REACTORS
330
47
102
}
330
47
100
AcDbScale
 70
     0
300
8:1
140
8.0
141
1.0
290
     0
  0
SCALE
  5
57
102
{ACAD_REACTORS
330
47
102
}
330
47
100
AcDbScale
 70
     0
300
10:1
140
10.0
141
1.0
290
     0
  0
SCALE
  5
58
102
{ACAD_REACTORS
330
47
102
}
330
47
100
AcDbScale
 70
     0
300
100:1
140
100.0
141
1.0
290
     0
  0
SCALE
  5
59
102
{ACAD_REACTORS
330
47
102
}
330
47
100
AcDbScale
 70
     0
300
1/128" = 1'-0"
140
0.0078125
141
12.0
290
     0
  0
SCALE
  5
5A
102
{ACAD_REACTORS
330
47
102
}
330
47
100
AcDbScale
 70
     0
300
1/64" = 1'-0"
140
0.015625
141
12.0
290
     0
  0
SCALE
  5
5B
102
{ACAD_REACTORS
330
47
102
}
330
47
100
AcDbScale
 70
     0
300
1/32" = 1'-0"
140
0.03125
141
12.0
290
     0
  0
SCALE
  5
5C
102
{ACAD_REACTORS
330
47
102
}
330
47
100
AcDbScale
 70
     0
300
1/16" = 1'-0"
140
0.0625
141
12.0
290
     0
  0
SCALE
  5
5D
102
{ACAD_REACTORS
330
47
102
}
330
47
100
AcDbScale
 70
     0
300
3/32" = 1'-0"
140
0.09375
141
12.0
290
     0
  0
SCALE
  5
5E
102
{ACAD_REACTORS
330
47
102
}
330
47
100
AcDbScale
 70
     0
300
1/8" = 1'-0"
140
0.125
141
12.0
290
     0
  0
SCALE
  5
5F
102
{ACAD_REACTORS
330
47
102
}
330
47
100
AcDbScale
 70
     0
300
3/16" = 1'-0"
140
0.1875
141
12.0
290
     0
  0
SCALE
  5
60
102
{ACAD_REACTORS
330
47
102
}
330
47
100
AcDbScale
 70
     0
300
1/4" = 1'-0"
140
0.25
141
12.0
290
     0
  0
SCALE
  5
61
102
{ACAD_REACTORS
330
47
102
}
330
47
100
AcDbScale
 70
     0
300
3/8" = 1'-0"
140
0.375
141
12.0
290
     0
  0
SCALE
  5
62
102
{ACAD_REACTORS
330
47
102
}
330
47
100
AcDbScale
 70
     0
300
1/2" = 1'-0"
140
0.5
141
12.0
290
     0
  0
SCALE
  5
63
102
{ACAD_REACTORS
330
47
102
}
330
47
100
AcDbScale
 70
     0
300
3/4" = 1'-0"
140
0.75
141
12.0
290
     0
  0
SCALE
  5
64
102
{ACAD_REACTORS
330
47
102
}
330
47
100
AcDbScale
 70
     0
300
1" = 1'-0"
140
1.0
141
12.0
290
     0
  0
SCALE
  5
65
102
{ACAD_REACTORS
330
47
102
}
330
47
100
AcDbScale
 70
     0
300
1-1/2" = 1'-0"
140
1.5
141
12.0
290
     0
  0
SCALE
  5
66
102
{ACAD_REACTORS
330
47
102
}
330
47
100
AcDbScale
 70
     0
300
3" = 1'-0"
140
3.0
141
12.0
290
     0
  0
SCALE
  5
67
102
{ACAD_REACTORS
330
47
102
}
330
47
100
AcDbScale
 70
     0
300
6" = 1'-0"
140
6.0
141
12.0
290
     0
  0
SCALE
  5
68
102
{ACAD_REACTORS
330
47
102
}
330
47
100
AcDbScale
 70
     0
300
1'-0" = 1'-0"
140
12.0
141
12.0
290
     0
  0
ENDSEC
  0
EOF
